# xmcd
#
# Track frame offsets:
#	150
#	22550
#	34527
#	50067
#	62667
#	75715
#	93847
#	107495
#	117280
#	129445
#	143882
#	155322
#
# Disc length: 2303 seconds
#
# Revision: 3
# Processed by: cddbd v1.5.2PL0 Copyright (c) Steve Scherf et al.
# Submitted via: EasyCDDAExtractor 15.3.0.1
#
DISCID=8a08fd0c
DTITLE=J.J. Cale - Guitar Man
DYEAR=1996
DGENRE=Blues
TTITLE0=Death In The Wilderness
TTITLE1=It's Hard To Tell
TTITLE2=Days Go By
TTITLE3=Low Down
TTITLE4=This Town
TTITLE5=Guitar Man
TTITLE6=If I Had A Rocket
TTITLE7=Perfect Woman
TTITLE8=Old Blue
TTITLE9=Doctor Told Me
TTITLE10=Miss Ol'St. Louie
TTITLE11=Nobody Knows
EXTD=
EXTT0=
EXTT1=
EXTT2=
EXTT3=
EXTT4=
EXTT5=
EXTT6=
EXTT7=
EXTT8=
EXTT9=
EXTT10=
EXTT11=
PLAYORDER=
